<?xml version="1.0" encoding="UTF-8"?>
<!DOCTYPE svg PUBLIC "-//W3C//DTD SVG 1.1//EN" "http://www.w3.org/Graphics/SVG/1.1/DTD/svg11.dtd">
<!-- Creator: CorelDRAW 2018 (64 Bit) -->
<svg xmlns="http://www.w3.org/2000/svg" xml:space="preserve" width="0.348894in" height="0.348886in" version="1.1" style="shape-rendering:geometricPrecision; text-rendering:geometricPrecision; image-rendering:optimizeQuality; fill-rule:evenodd; clip-rule:evenodd"
viewBox="0 0 34.75 34.75"
 xmlns:xlink="http://www.w3.org/1999/xlink">
 <defs>
  <style type="text/css">
   <![CDATA[
    .fil0 {fill:#FEFEFE}
   ]]>
  </style>
 </defs>
 <g id="Capa_x0020_1">
  <metadata id="CorelCorpID_0Corel-Layer"/>
  <path class="fil0" d="M34.75 10.36l-8.06 0c-1.27,0 -2.3,-1.04 -2.3,-2.3l0 -8.06 -1.96 0 0 8.06c0,2.35 1.92,4.27 4.27,4.27l8.06 0 0 -1.96zm-24.39 -10.36l0 8.06c0,1.27 -1.04,2.3 -2.3,2.3l-8.06 0 0 1.96 8.06 0c2.35,0 4.27,-1.92 4.27,-4.27l0 -8.06 -1.96 0zm-10.36 24.39l8.06 0c1.27,0 2.3,1.04 2.3,2.3l0 8.06 1.96 0 0 -8.06c0,-2.35 -1.92,-4.27 -4.27,-4.27l-8.06 0 0 1.96zm26.7 0l8.06 0 0 -1.96 -8.06 0c-2.35,0 -4.27,1.92 -4.27,4.27l0 8.06 1.96 0 0 -8.06c0,-1.27 1.04,-2.3 2.3,-2.3z"/>
 </g>
</svg>
