<?xml version="1.0" encoding="UTF-8"?>
<!DOCTYPE svg PUBLIC "-//W3C//DTD SVG 1.1//EN" "http://www.w3.org/Graphics/SVG/1.1/DTD/svg11.dtd">
<!-- Creator: CorelDRAW 2018 (64 Bit) -->
<svg xmlns="http://www.w3.org/2000/svg" xml:space="preserve" width="4.66185in" height="4.63927in" version="1.1" style="shape-rendering:geometricPrecision; text-rendering:geometricPrecision; image-rendering:optimizeQuality; fill-rule:evenodd; clip-rule:evenodd"
viewBox="0 0 4357.28 4336.17"
 xmlns:xlink="http://www.w3.org/1999/xlink">
 <defs>
  <style type="text/css">
   <![CDATA[
    .fil0 {fill:#00A859}
   ]]>
  </style>
 </defs>
 <g id="Capa_x0020_1">
  <metadata id="CorelCorpID_0Corel-Layer"/>
  <path class="fil0" d="M2461.96 7.77c1069.36,138.88 1895.32,1053.11 1895.32,2160.32 0,1107.21 -825.96,2021.44 -1895.32,2160.32l0 -322.73c892.25,-136.44 1575.72,-907.19 1575.72,-1837.59 0,-930.39 -683.47,-1701.15 -1575.72,-1837.59l0 -322.73zm-498.25 4328.41c-1102.33,-107.96 -1963.71,-1037.39 -1963.71,-2168.09 0,-1130.69 861.38,-2060.13 1963.71,-2168.09l0 321.49c-925.45,106.57 -1644.11,892.59 -1644.11,1846.6 0,954.01 718.65,1740.03 1644.11,1846.6l0 321.49zm1202.24 -3313.04l0 1703.65c0,421.42 -344.79,766.21 -766.21,766.21l-373.76 0c-421.42,0 -766.21,-344.79 -766.21,-766.21l0 -1703.65 478.38 0 0 1648c0,217.17 177.68,394.86 394.86,394.86l159.73 0c217.17,0 394.86,-177.68 394.86,-394.86l0 -1648 478.37 0z"/>
 </g>
</svg>
